<svg xmlns="http://www.w3.org/2000/svg" width="43.042" height="37.425" viewBox="0 0 43.042 37.425">
    <path data-name="Fill 1" d="M23.806 37.425v-3.986a10.585 10.585 0 0 0 7.11-2.547 15.34 15.34 0 0 0 4.263-5.647 8.773 8.773 0 0 0 .636-5.647 3.179 3.179 0 0 0-1.273-1.91 4.394 4.394 0 0 0-2.492-.637 7.857 7.857 0 0 1-5.841-2.491 8.4 8.4 0 0 1-2.408-6.035 8.4 8.4 0 0 1 2.408-6.035A7.857 7.857 0 0 1 32.054 0a11.3 11.3 0 0 1 5.986 1.467 8.863 8.863 0 0 1 3.564 4.4A20.092 20.092 0 0 1 43 12.02a24.48 24.48 0 0 1-.533 6.72 28.361 28.361 0 0 1-2.346 6.712 31.268 31.268 0 0 1-4.048 6.132 16.5 16.5 0 0 1-5.516 4.38 15.559 15.559 0 0 1-6.751 1.461zM0 37.425v-3.986a10.614 10.614 0 0 0 7.082-2.547 14.949 14.949 0 0 0 4.263-5.647 9.023 9.023 0 0 0 .636-5.647 3.134 3.134 0 0 0-1.252-1.91 4.359 4.359 0 0 0-2.484-.637 7.855 7.855 0 0 1-5.837-2.491A8.4 8.4 0 0 1 0 8.526a8.4 8.4 0 0 1 2.408-6.035A7.855 7.855 0 0 1 8.249 0a11.3 11.3 0 0 1 5.986 1.467 8.865 8.865 0 0 1 3.564 4.4 20.1 20.1 0 0 1 1.391 6.153 24.468 24.468 0 0 1-.533 6.72 28.346 28.346 0 0 1-2.346 6.712 31.257 31.257 0 0 1-4.049 6.132 16.5 16.5 0 0 1-5.515 4.38A15.559 15.559 0 0 1 0 37.425z" style="fill:#eceeff"/>
</svg>
